<?xml version="1.0"?>
<svg version="1.1" xmlns="http://www.w3.org/2000/svg" xmlns:xlink="http://www.w3.org/1999/xlink" width="960" height="960">
    <desc iVinci="yes" version="4.6" gridStep="20" showGrid="yes" snapToGrid="no" codePlatform="0"/>
    <g id="Layer1" name="Layer 1" opacity="1">
        <g id="Shape1">
            <desc shapeID="1" type="0" basicInfo-basicType="0" basicInfo-roundedRectRadius="12" basicInfo-polygonSides="6" basicInfo-starPoints="5" bounding="rect(-452.588,-454.835,905.176,909.671)" text="" font-familyName="" font-pixelSize="20" font-bold="0" font-underline="0" font-alignment="1" strokeStyle="0" markerStart="0" markerEnd="0" shadowEnabled="0" shadowOffsetX="0" shadowOffsetY="2" shadowBlur="4" shadowOpacity="160" blurEnabled="0" blurRadius="4" transform="matrix(1,0,0,1,485.973,483.616)" pers-center="0,0" pers-size="0,0" pers-start="0,0" pers-end="0,0" locked="0" mesh="" flag=""/>
            <path id="shapePath1" d="M938.561,484.58 C938.411,737.116 735.726,938.715 482.246,938.451 C234.029,938.192 32.972,733.042 33.386,480.456 C33.796,231.235 237.73,28.421 487.552,28.781 C737.058,29.141 938.71,232.934 938.561,484.58 M919.303,484.618 C912.324,242.327 732.894,50.547 486.363,50.04 C245.918,49.547 55.287,235.143 54.573,482.849 C53.869,727.245 241.03,916.364 484.592,917.403 C726.305,918.434 910.999,731.315 919.303,484.618 Z" style="stroke:none;fill-rule:evenodd;fill:#000000;fill-opacity:1;"/>
        </g>
        <g id="Shape2">
            <desc shapeID="2" type="0" basicInfo-basicType="0" basicInfo-roundedRectRadius="12" basicInfo-polygonSides="6" basicInfo-starPoints="5" bounding="rect(-134.62,-312.79,269.239,625.58)" text="" font-familyName="" font-pixelSize="20" font-bold="0" font-underline="0" font-alignment="1" strokeStyle="0" markerStart="0" markerEnd="0" shadowEnabled="0" shadowOffsetX="0" shadowOffsetY="2" shadowBlur="4" shadowOpacity="160" blurEnabled="0" blurRadius="4" transform="matrix(1,0,0,1,601.18,478.334)" pers-center="0,0" pers-size="0,0" pers-start="0,0" pers-end="0,0" locked="0" mesh="" flag=""/>
            <path id="shapePath2" d="M639.053,468.047 C697.688,491.836 728.323,536.991 734.623,595.451 C741.989,663.794 715.158,731.529 642.776,765.113 C601.293,784.361 527.695,795.823 479.269,789.269 C479.269,785.702 479.269,781.879 479.269,778.056 C479.267,685.123 479.299,592.191 479.207,499.258 C479.198,489.877 481.047,482.656 489.269,475.994 C521.103,450.201 546.991,419.699 553.498,377.369 C561.19,327.345 561.904,277.685 533.731,232.742 C516.84,205.794 493.61,184.729 466.56,165.763 C481.218,165.763 495.9,165.209 510.529,165.865 C560.223,168.093 607.935,176.864 650.44,205.66 C722.283,254.334 733.57,367.753 696.162,420.417 C681.435,441.153 662.374,455.965 639.053,468.047 Z" style="stroke:none;fill-rule:evenodd;fill:#000000;fill-opacity:1;"/>
        </g>
        <g id="Shape3">
            <desc shapeID="3" type="0" basicInfo-basicType="0" basicInfo-roundedRectRadius="12" basicInfo-polygonSides="6" basicInfo-starPoints="5" bounding="rect(-117.442,-312.015,234.884,624.029)" text="" font-familyName="" font-pixelSize="20" font-bold="0" font-underline="0" font-alignment="1" strokeStyle="0" markerStart="0" markerEnd="0" shadowEnabled="0" shadowOffsetX="0" shadowOffsetY="2" shadowBlur="4" shadowOpacity="160" blurEnabled="0" blurRadius="4" transform="matrix(1,0,0,1,425.446,477.09)" pers-center="0,0" pers-size="0,0" pers-start="0,0" pers-end="0,0" locked="0" mesh="" flag=""/>
            <path id="shapePath3" d="M345.518,495.423 C345.518,593.837 345.518,691.004 345.518,789.104 C339.659,789.104 334.853,789.104 329.111,789.104 C329.111,781.335 329.115,773.844 329.11,766.353 C329.032,674.996 329.104,583.636 328.661,492.281 C328.612,482.012 331.023,478.403 341.83,478.696 C371.16,479.493 400.499,479.936 429.059,470.488 C499.414,447.211 531.179,381.343 526.816,320.071 C521.618,247.073 472.828,193.279 403.431,184.377 C376.806,180.961 349.589,182.194 322.639,181.363 C317.967,181.219 313.287,181.342 308.004,181.342 C308.004,175.578 308.004,171.035 308.004,165.075 C349.542,167.279 390.847,160.791 431.46,172.018 C494.683,189.498 542.688,251.357 542.878,317.143 C542.93,335.402 542.903,354.104 539.287,371.856 C524.081,446.502 461.327,494.438 379.583,495.405 C368.576,495.535 357.566,495.423 345.518,495.423 Z" style="stroke:none;fill-rule:evenodd;fill:#000000;fill-opacity:1;"/>
        </g>
    </g>
</svg>
